<svg id="svg" version="1.1" xmlns="http://www.w3.org/2000/svg" xmlns:xlink="http://www.w3.org/1999/xlink" preserveAspectRatio="none" viewBox="0, 0, 400,400">
    <g id="svgg">
        <path id="path0" d="M146.680 7.081 C 119.736 15.187,101.158 24.269,80.903 39.237 L 78.115 41.298 112.836 76.020 C 131.933 95.117,147.624 110.742,147.705 110.742 C 147.786 110.742,147.852 87.363,147.852 58.789 C 147.852 17.346,147.802 6.840,147.607 6.856 C 147.473 6.867,147.056 6.968,146.680 7.081 M252.148 58.789 C 252.148 87.363,252.214 110.742,252.295 110.742 C 252.376 110.742,268.067 95.117,287.164 76.020 L 321.885 41.298 319.097 39.237 C 301.794 26.446,283.110 16.728,262.988 10.053 C 259.709 8.966,252.618 6.836,252.276 6.836 C 252.206 6.836,252.148 30.215,252.148 58.789 M64.734 52.588 L 64.160 53.223 64.795 52.649 C 65.387 52.114,65.519 51.953,65.369 51.953 C 65.335 51.953,65.049 52.239,64.734 52.588 M61.224 55.908 L 60.059 57.129 61.279 55.963 C 62.413 54.880,62.589 54.688,62.445 54.688 C 62.415 54.688,61.866 55.237,61.224 55.908 M344.336 61.621 C 344.919 62.212,345.441 62.695,345.494 62.695 C 345.548 62.695,345.115 62.212,344.531 61.621 C 343.948 61.030,343.426 60.547,343.373 60.547 C 343.319 60.547,343.752 61.030,344.336 61.621 M346.875 64.319 C 346.875 64.353,347.161 64.638,347.510 64.954 L 348.145 65.527 347.571 64.893 C 347.036 64.301,346.875 64.168,346.875 64.319 M39.522 80.514 C 27.392 96.845,18.139 114.165,11.325 133.297 C 9.957 137.135,6.836 147.176,6.836 147.735 C 6.836 147.799,30.215 147.852,58.789 147.852 C 87.363 147.852,110.742 147.786,110.742 147.705 C 110.742 147.624,95.118 131.934,76.022 112.838 L 41.302 78.118 39.522 80.514 M323.970 112.847 C 304.878 131.939,289.258 147.625,289.258 147.705 C 289.258 147.786,312.637 147.852,341.211 147.852 C 369.785 147.852,393.164 147.795,393.164 147.727 C 393.164 146.198,387.880 130.660,384.971 123.635 C 378.577 108.196,365.797 86.038,358.809 78.276 C 358.739 78.198,343.061 93.755,323.970 112.847 M6.836 252.265 C 6.836 252.473,7.429 254.504,8.811 259.032 C 15.209 279.988,25.441 300.306,38.668 318.319 L 41.291 321.892 76.017 287.167 C 95.116 268.068,110.742 252.376,110.742 252.295 C 110.742 252.214,87.363 252.148,58.789 252.148 C 30.215 252.148,6.836 252.201,6.836 252.265 M289.258 252.295 C 289.258 252.376,304.884 268.068,323.983 287.167 L 358.709 321.892 361.332 318.319 C 375.173 299.469,385.537 278.504,392.074 256.131 C 392.673 254.078,393.164 252.342,393.164 252.273 C 393.164 252.205,369.785 252.148,341.211 252.148 C 312.637 252.148,289.258 252.214,289.258 252.295 M112.834 323.982 L 78.111 358.706 81.194 360.966 C 98.705 373.800,116.719 383.174,136.621 389.811 C 139.746 390.853,147.401 393.164,147.727 393.164 C 147.795 393.164,147.852 369.785,147.852 341.211 C 147.852 312.637,147.786 289.258,147.705 289.258 C 147.624 289.258,131.933 304.884,112.834 323.982 M252.148 341.211 C 252.148 369.785,252.205 393.164,252.273 393.164 C 252.613 393.164,260.290 390.847,263.379 389.812 C 283.510 383.068,301.905 373.477,319.097 360.764 L 321.885 358.702 287.164 323.980 C 268.067 304.883,252.376 289.258,252.295 289.258 C 252.214 289.258,252.148 312.637,252.148 341.211 M51.953 334.631 C 51.953 334.665,52.239 334.951,52.588 335.266 L 53.223 335.840 52.649 335.205 C 52.114 334.613,51.953 334.481,51.953 334.631 M55.762 338.672 C 56.400 339.316,56.965 339.844,57.019 339.844 C 57.073 339.844,56.595 339.316,55.957 338.672 C 55.319 338.027,54.753 337.500,54.700 337.500 C 54.646 337.500,55.124 338.027,55.762 338.672 M338.373 344.385 L 337.207 345.605 338.428 344.440 C 339.562 343.357,339.738 343.164,339.593 343.164 C 339.563 343.164,339.014 343.713,338.373 344.385 M335.046 347.510 L 334.473 348.145 335.107 347.571 C 335.699 347.036,335.832 346.875,335.681 346.875 C 335.647 346.875,335.362 347.161,335.046 347.510 " stroke="none" fill="#0454b4" fill-rule="evenodd"></path><path id="path1" d="M189.160 0.213 C 186.637 0.362,181.170 0.821,178.872 1.078 C 178.477 1.122,177.730 1.205,177.211 1.261 C 176.693 1.317,175.962 1.411,175.586 1.469 C 175.210 1.527,174.683 1.584,174.414 1.597 L 173.926 1.619 173.926 87.772 L 173.926 173.926 87.760 173.926 C 11.297 173.926,1.594 173.959,1.596 174.219 C 1.599 174.559,1.452 175.776,1.291 176.758 C 1.229 177.134,1.121 178.101,1.051 178.906 C 0.981 179.712,0.896 180.635,0.861 180.957 C -0.213 190.935,-0.213 209.065,0.861 219.043 C 0.896 219.365,0.981 220.288,1.051 221.094 C 1.121 221.899,1.229 222.866,1.291 223.242 C 1.452 224.224,1.599 225.441,1.596 225.781 C 1.594 226.041,11.297 226.074,87.760 226.074 L 173.926 226.074 173.926 312.230 L 173.926 398.385 176.074 398.624 C 177.256 398.756,178.574 398.894,179.004 398.931 C 179.434 398.968,181.147 399.129,182.813 399.289 C 190.519 400.031,206.631 400.207,213.477 399.625 C 214.819 399.511,216.577 399.367,217.383 399.306 C 219.030 399.181,223.516 398.695,224.707 398.512 C 225.137 398.446,225.620 398.395,225.781 398.399 C 226.041 398.405,226.074 388.705,226.074 312.240 L 226.074 226.074 312.256 226.074 L 398.438 226.074 398.471 225.391 C 398.511 224.567,398.529 224.396,398.699 223.145 C 398.863 221.948,398.950 221.082,399.309 217.090 C 400.258 206.536,400.252 193.227,399.293 182.813 C 399.130 181.040,398.960 179.150,398.914 178.613 C 398.869 178.076,398.776 177.241,398.707 176.758 C 398.486 175.200,398.405 174.518,398.405 174.219 C 398.406 173.959,388.702 173.926,312.240 173.926 L 226.074 173.926 226.074 87.760 C 226.074 11.297,226.041 1.594,225.781 1.597 C 225.620 1.598,225.137 1.552,224.707 1.494 C 215.448 0.253,198.728 -0.349,189.160 0.213 M290.381 85.108 L 252.148 123.340 252.148 135.547 L 252.148 147.754 296.770 103.132 C 339.867 60.036,341.380 58.498,341.057 58.137 C 340.058 57.018,331.637 49.257,331.080 48.940 C 330.905 48.841,330.327 48.335,329.795 47.817 C 329.264 47.299,328.780 46.875,328.721 46.875 C 328.662 46.875,311.408 64.080,290.381 85.108 M55.388 61.783 C 53.697 63.555,52.122 65.254,51.889 65.559 C 51.656 65.864,50.918 66.685,50.249 67.383 C 49.580 68.081,49.031 68.716,49.028 68.794 C 49.026 68.872,48.540 69.443,47.949 70.063 C 47.358 70.683,46.875 71.234,46.875 71.289 C 46.875 71.343,64.080 88.592,85.109 109.621 L 123.343 147.855 135.500 147.804 L 147.657 147.754 103.060 103.158 L 58.463 58.561 55.388 61.783 M296.868 296.770 C 339.964 339.867,341.502 341.380,341.863 341.057 C 342.945 340.090,350.707 331.661,351.188 330.931 C 351.357 330.674,351.621 330.354,351.774 330.222 C 351.926 330.089,352.312 329.692,352.631 329.340 L 353.210 328.699 314.935 290.424 L 276.661 252.148 264.453 252.148 L 252.246 252.148 296.868 296.770 M103.172 296.926 L 58.590 341.508 60.399 343.270 C 63.445 346.238,68.427 350.789,68.917 351.051 C 69.094 351.145,69.427 351.409,69.658 351.637 C 69.888 351.864,70.357 352.307,70.699 352.620 L 71.322 353.189 109.588 314.923 L 147.855 276.657 147.804 264.500 L 147.754 252.343 103.172 296.926 " stroke="none" fill="#dc0424" fill-rule="evenodd"></path><path id="path2" d="M171.973 1.984 C 164.473 3.133,158.112 4.374,151.904 5.901 L 147.852 6.898 147.852 58.966 L 147.852 111.035 113.033 76.217 L 78.215 41.399 75.569 43.502 C 70.471 47.556,65.758 51.693,61.339 55.994 L 58.691 58.570 103.320 103.211 L 147.949 147.852 135.547 147.852 L 123.144 147.852 84.986 109.693 L 46.828 71.535 46.198 72.242 C 45.852 72.631,44.630 74.133,43.482 75.581 L 41.396 78.212 76.216 113.032 L 111.035 147.852 58.960 147.852 L 6.884 147.852 5.876 151.959 C 4.661 156.912,3.138 164.510,2.451 169.043 C 2.175 170.869,1.898 172.693,1.836 173.096 L 1.723 173.828 87.776 173.828 L 173.828 173.828 173.828 87.793 C 173.828 5.976,173.811 1.759,173.486 1.781 C 173.298 1.794,172.617 1.886,171.973 1.984 M226.172 87.776 L 226.172 173.828 312.207 173.828 C 359.526 173.828,398.242 173.762,398.242 173.682 C 398.237 171.857,395.616 158.039,394.110 151.904 L 393.116 147.852 341.040 147.852 L 288.965 147.852 323.784 113.032 L 358.604 78.212 356.514 75.581 C 352.523 70.556,345.439 62.584,342.206 59.477 L 341.397 58.701 296.773 103.325 L 252.148 147.949 252.148 135.547 L 252.148 123.144 290.307 84.986 L 328.465 46.828 327.758 46.198 C 327.369 45.852,325.867 44.630,324.419 43.482 L 321.788 41.396 286.968 76.216 L 252.148 111.035 252.148 58.960 L 252.148 6.884 248.085 5.887 C 243.092 4.662,235.395 3.116,230.957 2.449 C 229.131 2.174,227.307 1.898,226.904 1.836 L 226.172 1.723 226.172 87.776 M1.836 226.904 C 1.898 227.307,2.175 229.131,2.451 230.957 C 3.138 235.490,4.661 243.088,5.876 248.041 L 6.884 252.148 58.960 252.148 L 111.035 252.148 76.213 286.971 L 41.391 321.793 43.814 324.813 C 48.100 330.152,53.672 336.441,57.216 339.939 L 58.599 341.303 103.225 296.677 L 147.852 252.051 147.852 264.453 L 147.852 276.856 109.693 315.014 L 71.535 353.172 72.242 353.802 C 72.631 354.148,74.133 355.370,75.581 356.518 L 78.212 358.604 113.032 323.784 L 147.852 288.965 147.852 341.032 L 147.852 393.098 148.682 393.306 C 154.699 394.811,160.437 396.062,165.430 396.958 C 166.975 397.236,173.473 398.242,173.718 398.242 C 173.779 398.242,173.828 359.526,173.828 312.207 L 173.828 226.172 87.776 226.172 L 1.723 226.172 1.836 226.904 M226.172 312.207 C 226.172 359.526,226.238 398.242,226.318 398.242 C 228.143 398.237,241.961 395.616,248.096 394.110 L 252.148 393.116 252.148 341.040 L 252.148 288.965 286.968 323.784 L 321.788 358.604 324.419 356.514 C 329.444 352.523,337.416 345.439,340.523 342.206 L 341.299 341.397 296.675 296.773 L 252.051 252.148 264.453 252.148 L 276.856 252.148 315.014 290.307 L 353.172 328.465 353.802 327.758 C 354.148 327.369,355.370 325.867,356.518 324.419 L 358.604 321.788 323.784 286.968 L 288.965 252.148 341.034 252.148 L 393.102 252.148 394.105 248.096 C 395.598 242.058,398.237 228.164,398.242 226.318 C 398.242 226.238,359.526 226.172,312.207 226.172 L 226.172 226.172 226.172 312.207 " stroke="none" fill="#f3f3f3" fill-rule="evenodd"></path><path id="path3" d="M173.877 87.744 L 173.828 173.828 87.744 173.877 L 1.660 173.926 87.750 173.975 C 156.479 174.014,173.859 173.974,173.933 173.779 C 173.984 173.645,174.003 134.863,173.976 87.598 L 173.925 1.660 173.877 87.744 M226.074 87.891 L 226.074 173.926 312.158 173.926 L 398.242 173.926 312.207 173.877 L 226.172 173.828 226.123 87.842 L 226.074 1.855 226.074 87.891 M58.594 58.647 C 58.594 58.677,59.275 59.358,60.107 60.161 L 61.621 61.621 60.161 60.107 C 58.805 58.702,58.594 58.505,58.594 58.647 M309.082 90.869 L 276.855 123.145 309.131 90.918 C 326.882 73.194,341.406 58.670,341.406 58.643 C 341.406 58.506,339.043 60.862,309.082 90.869 M63.184 63.281 C 64.038 64.141,64.781 64.844,64.835 64.844 C 64.888 64.844,64.233 64.141,63.379 63.281 C 62.525 62.422,61.782 61.719,61.728 61.719 C 61.674 61.719,62.329 62.422,63.184 63.281 M65.039 65.093 C 65.039 65.122,65.720 65.803,66.553 66.606 L 68.066 68.066 66.606 66.553 C 65.250 65.147,65.039 64.950,65.039 65.093 M69.629 69.727 C 70.483 70.586,71.226 71.289,71.280 71.289 C 71.334 71.289,70.679 70.586,69.824 69.727 C 68.970 68.867,68.227 68.164,68.173 68.164 C 68.120 68.164,68.775 68.867,69.629 69.727 M109.473 109.570 C 130.420 130.518,147.602 147.656,147.656 147.656 C 147.710 147.656,130.615 130.518,109.668 109.570 C 88.721 88.623,71.538 71.484,71.485 71.484 C 71.431 71.484,88.526 88.623,109.473 109.570 M264.453 135.498 L 252.246 147.754 264.502 135.547 C 275.895 124.201,276.845 123.242,276.708 123.242 C 276.681 123.242,271.166 128.757,264.453 135.498 M87.842 226.123 L 173.828 226.172 173.877 312.207 L 173.926 398.242 173.926 312.158 L 173.926 226.074 87.891 226.074 L 1.855 226.074 87.842 226.123 M226.067 226.221 C 226.016 226.355,225.997 265.137,226.024 312.402 L 226.075 398.340 226.123 312.256 L 226.172 226.172 312.256 226.123 L 398.340 226.074 312.250 226.025 C 243.521 225.986,226.141 226.026,226.067 226.221 " stroke="none" fill="#e47484" fill-rule="evenodd"></path><path id="path4" d="M290.234 85.107 L 252.051 123.340 290.283 85.156 C 325.829 49.656,328.603 46.875,328.467 46.875 C 328.440 46.875,311.235 64.080,290.234 85.107 M341.406 58.655 C 341.406 58.688,341.692 58.974,342.041 59.290 L 342.676 59.863 342.102 59.229 C 341.567 58.637,341.406 58.504,341.406 58.655 M84.961 109.668 C 105.962 130.669,123.188 147.852,123.242 147.852 C 123.296 147.852,106.157 130.669,85.156 109.668 C 64.155 88.667,46.929 71.484,46.875 71.484 C 46.822 71.484,63.960 88.667,84.961 109.668 M103.187 296.715 C 62.382 337.520,58.591 341.259,58.266 341.013 C 57.925 340.755,57.924 340.759,58.255 341.120 C 58.591 341.487,59.824 340.273,103.275 296.823 C 127.846 272.252,147.905 252.148,147.851 252.148 C 147.798 252.148,127.699 272.203,103.187 296.715 M296.672 296.721 L 341.293 341.391 340.818 341.936 L 340.343 342.480 340.921 341.941 L 341.499 341.402 296.775 296.726 L 252.051 252.051 296.672 296.721 M314.844 290.332 C 335.845 311.333,353.071 328.516,353.125 328.516 C 353.178 328.516,336.040 311.333,315.039 290.332 C 294.038 269.331,276.812 252.148,276.758 252.148 C 276.704 252.148,293.843 269.331,314.844 290.332 M109.570 314.990 L 71.387 353.223 109.619 315.039 C 130.647 294.038,147.852 276.834,147.852 276.807 C 147.852 276.670,145.071 279.444,109.570 314.990 " stroke="none" fill="#e47c8c" fill-rule="evenodd"></path>
    </g>
</svg>
